<?xml version="1.0" standalone="no"?>
<!DOCTYPE svg PUBLIC "-//W3C//DTD SVG 1.1//EN" "http://www.w3.org/Graphics/SVG/1.1/DTD/svg11.dtd" >
<!--
2013-9-30: Created.
-->
<svg>
<metadata>
Created by iconfont
</metadata>
<defs>

<font id="iconfont" horiz-adv-x="1024" >
  <font-face
    font-family="iconfont"
    font-weight="500"
    font-stretch="normal"
    units-per-em="1024"
    ascent="896"
    descent="-128"
  />
    <missing-glyph />
    
    <glyph glyph-name="x" unicode="x" horiz-adv-x="1001"
d="M281 543q-27 -1 -53 -1h-83q-18 0 -36.5 -6t-32.5 -18.5t-23 -32t-9 -45.5v-76h912v41q0 16 -0.5 30t-0.5 18q0 13 -5 29t-17 29.5t-31.5 22.5t-49.5 9h-133v-97h-438v97zM955 310v-52q0 -23 0.5 -52t0.5 -58t-10.5 -47.5t-26 -30t-33 -16t-31.5 -4.5q-14 -1 -29.5 -0.5
t-29.5 0.5h-32l-45 128h-439l-44 -128h-29h-34q-20 0 -45 1q-25 0 -41 9.5t-25.5 23t-13.5 29.5t-4 30v167h911zM163 247q-12 0 -21 -8.5t-9 -21.5t9 -21.5t21 -8.5q13 0 22 8.5t9 21.5t-9 21.5t-22 8.5zM316 123q-8 -26 -14 -48q-5 -19 -10.5 -37t-7.5 -25t-3 -15t1 -14.5
t9.5 -10.5t21.5 -4h37h67h81h80h64h36q23 0 34 12t2 38q-5 13 -9.5 30.5t-9.5 34.5q-5 19 -11 39h-368zM336 498v228q0 11 2.5 23t10 21.5t20.5 15.5t34 6h188q31 0 51.5 -14.5t20.5 -52.5v-227h-327z" />
    

    
    <glyph glyph-name="last" unicode="&#58932;" d="M368.124744 455.493686l503.562661 359.687615a82.683746 82.683746 0 0 0 123.892401-71.493464v-719.819289a82.683746 82.683746 0 0 0-123.892401-71.493464l-503.562661 359.687615a82.905775 82.905775 0 0 0 0 143.430987zM65.276654-127.999556a36.768067 36.768067 0 0 1 36.856879 36.856879V859.143121A36.856879 36.856879 0 0 1 28.419775 859.143121v-950.729857a36.679256 36.679256 0 0 1 36.856879-36.41282z"  horiz-adv-x="1024" />

    
    <glyph glyph-name="nav_back" unicode="&#58933;" d="M749.83024-127.99815a27.019374 27.019374 0 0 0-20.097056 8.613024L253.145871 363.263204c-10.84603 10.84603-10.527029 31.262086 0 41.789115L729.733184 887.70065a28.486779 28.486779 0 0 0 40.513112-0.319001 29.635182 29.635182 0 0 0 0-41.789115l-456.171257-461.594273 455.852256-461.913273a29.635182 29.635182 0 0 0 0-41.789115 28.518679 28.518679 0 0 0-20.097055-8.294023z"  horiz-adv-x="1024" />

    
    <glyph glyph-name="home_recent" unicode="&#58934;" d="M76.857855 521.054359a40.270009 40.270009 0 0 0-37.406104 55.524687 517.256288 517.256288 0 0 0 272.070963 277.623431 40.44535 40.44535 0 0 0 32.145871-74.227738 436.979281 436.979281 0 0 1-229.404625-233.788153 40.533021 40.533021 0 0 0-37.406105-25.132227zM513.164996-128A511.616149 511.616149 0 0 0 9.935996 292.234205a40.416127 40.416127 0 0 0 79.487972 14.611759 430.316319 430.316319 0 0 1 423.741028-353.604581c237.879446 0 431.339142 193.459697 431.339142 431.046907S751.044441 815.335197 513.164996 815.335197a411.321031 411.321031 0 0 1-42.374103-2.045646A40.386903 40.386903 0 1 0 462.900543 893.654228a482.188065 482.188065 0 0 0 50.264453 2.337882c282.59143 0 512.28829-229.69686 512.28829-511.996055s-229.989095-511.996055-512.28829-511.996055zM500.014412 315.905255a40.416127 40.416127 0 0 0-40.328456 40.328457V670.386542a40.328456 40.328456 0 0 0 80.656912 0v-314.15283a40.036221 40.036221 0 0 0-40.328456-40.328457zM814.167242 315.905255H500.014412a40.328456 40.328456 0 0 0 0 80.656913h314.15283a40.328456 40.328456 0 1 0 0-80.656913zM47.049866 387.795112a40.416127 40.416127 0 0 0-40.328457 40.328457 47.955795 47.955795 0 0 0 0.584471 6.721409 52.163982 52.163982 0 0 0-0.584471 6.721409 40.416127 40.416127 0 0 0 40.328457 40.328457 47.049866 47.049866 0 1 0 0-94.099732z m0 13.442819zM47.049866 387.795112a47.049866 47.049866 0 0 0 0 94.099732 40.416127 40.416127 0 0 0 40.328456-40.328457 47.955795 47.955795 0 0 0-0.58447-6.721409 52.163982 52.163982 0 0 0 0.58447-6.721409 40.416127 40.416127 0 0 0-40.328456-40.328457z"  horiz-adv-x="1025" />

    
    <glyph glyph-name="list" unicode="&#58935;" d="M721.599414-128c-56.243134 0-105.362138 20.997437-131.23398 62.242402-47.994141 76.490663 0 193.476382 107.236909 260.968144s233.596485 60.367631 281.590627-16.123032c24.372025-38.620286 25.496888-87.364335 3.374588-137.983157-20.622483-47.619187-59.992677-91.113878-110.611498-122.984987-49.119004-31.121201-102.362505-46.11937-150.356646-46.11937z m127.484438 322.835591c-39.370194 0-84.739656-13.123398-126.359575-39.370194-83.989747-52.868546-126.359575-142.857561-92.613695-196.476016s133.483706-54.368363 217.473453-1.499817c42.744782 26.996705 75.740754 63.367265 92.613695 101.987551 15.748078 35.995606 15.748078 69.366532 0 94.488465-17.247895 27.371659-50.993775 40.870011-91.113878 40.870011zM976.56829 85.723911a23.359648 23.359648 0 0 0-23.247162 23.247162V728.020505a23.247162 23.247162 0 1 0 46.494324 0v-619.049432a23.359648 23.359648 0 0 0-23.247162-23.247162zM50.05639 844.256316A25.871842 25.871842 0 1 0 50.05639 896h830.898572a25.871842 25.871842 0 1 0 0-51.743684zM51.181252 569.414866a25.871842 25.871842 0 1 0 0 51.743684h675.667521a25.871842 25.871842 0 1 0 0-51.743684zM51.181252 294.573416a25.871842 25.871842 0 0 0 0 51.743684H515.374588a25.871842 25.871842 0 0 0 0-51.743684zM51.181252 19.731966a25.871842 25.871842 0 0 0 0 51.743684h311.586965a25.871842 25.871842 0 0 0 0-51.743684z"  horiz-adv-x="1024" />

    
    <glyph glyph-name="home_singer" unicode="&#58936;" d="M332.740846 445.188258a39.542352 39.542352 0 0 0-39.400369 39.400369V680.951545a214.891741 214.891741 0 0 0 8.518999 59.987949 39.542352 39.542352 0 1 0 75.961071-22.007413 138.220753 138.220753 0 0 1-5.324374-37.980536v-196.291927A39.400369 39.400369 0 0 0 332.740846 445.188258zM511.994776 158.80792c-113.23169 0-209.070425 88.029653-217.944382 200.196468a39.542352 39.542352 0 1 0 78.800737 6.389249c5.679332-71.346614 67.087114-127.430021 139.143645-127.430021a139.463107 139.463107 0 0 1 139.853561 138.788686v304.199243A138.930669 138.930669 0 0 1 536.486897 817.610482a39.22289 39.22289 0 0 0-31.946245 45.789617 39.22289 39.22289 0 0 0 45.789618 31.946245 217.731407 217.731407 0 0 0 180.673762-214.394799v-304.199243a218.902769 218.902769 0 0 0-219.009256-217.944382zM511.994776 34.927482A327.200539 327.200539 0 0 0 185.078203 361.844055a39.400369 39.400369 0 1 0 78.800737 0 248.115835 248.115835 0 1 1 496.231671 0 39.400369 39.400369 0 1 0 78.800738 0 327.44901 327.44901 0 0 0-326.916573-326.916573zM511.994776-127.998367a39.542352 39.542352 0 0 0-39.400369 39.400369v163.280807a39.400369 39.400369 0 0 0 78.800737 0v-163.280807a39.04541 39.04541 0 0 0-39.400368-39.400369zM614.222759-127.998367H409.056876a39.400369 39.400369 0 1 0 0 78.800737h204.810925a39.542352 39.542352 0 0 0 39.400369-39.400368 38.79694 38.79694 0 0 0-39.045411-39.400369zM409.411834 784.95432a46.144576 46.144576 0 1 0 46.144576 46.144576 46.144576 46.144576 0 0 0-46.144576-46.144576z"  horiz-adv-x="1024" />

    
    <glyph glyph-name="nav_me" unicode="&#58937;" d="M698.081324 815.303347a256.607988 256.607988 0 0 1-373.63656 0A278.237639 278.237639 0 0 1 247.801367 622.220943 276.358402 276.358402 0 0 1 369.399064 391.185318a443.389421 443.389421 0 0 1-170.236775-103.542281C109.622166 198.83987 63.93091 72.451961 63.562433-87.835912a35.373875 35.373875 0 0 1 35.373875-35.373876 35.373875 35.373875 0 0 1 35.373876 35.373876c0.368478 181.291112 63.378194 309.152933 187.186757 380.637639a431.119108 431.119108 0 0 0 191.608493 54.534725 28.225405 28.225405 0 0 1 9.948902 1.473911 255.281468 255.281468 0 0 1 174.65851 80.696654 278.237639 278.237639 0 0 1 76.643397 193.082404 276.653185 276.653185 0 0 1-76.274919 192.713926z m-186.81828-396.850666c-106.121626 0-192.713926 91.382512-192.713926 203.399784s86.592299 203.399784 192.713926 203.399784 192.713926-91.382512 192.713926-203.399784-86.592299-203.399784-192.713926-203.399784zM801.255128 320.06909a35.263332 35.263332 0 1 1-35.742354-60.798849c0.368478 0 29.109752-18.423893 58.587982-66.694494 29.846707-49.376035 65.589061-138.547679 65.58906-285.201872a35.373875 35.373875 0 1 1 70.747751 0c-0.368478 315.785534-152.549838 409.010435-159.182439 412.695215z"  horiz-adv-x="1024" />

    
    <glyph glyph-name="nav_more" unicode="&#58938;" d="M625.812026 782.187955a113.812045 113.812045 0 1 1-113.812045-113.812045 113.719515 113.719515 0 0 1 113.812045 113.812045zM625.812026 392.944593A113.812045 113.812045 0 1 1 511.999981 279.132549a113.719515 113.719515 0 0 1 113.812045 113.812044zM625.812026-14.187924A113.812045 113.812045 0 1 1 511.999981-127.999969a113.719515 113.719515 0 0 1 113.812045 113.812045z"  horiz-adv-x="1024" />

    
    <glyph glyph-name="stop" unicode="&#58939;" d="M512-128a512 512 0 1 0 512 512 512.730201 512.730201 0 0 0-512-512z m0 997.369128a485.369128 485.369128 0 1 1 485.369128-485.369128 485.97047 485.97047 0 0 1-485.369128 485.369128zM403.328859 182.97986600000002a32.42953 32.42953 0 0 0-32.214765 32.214765V553.234899a32.214765 32.214765 0 0 0 64.42953 0v-338.040268a32.171812 32.171812 0 0 0-32.214765-32.214765zM621.100671 182.97986600000002a32.42953 32.42953 0 0 0-32.214765 32.214765V553.234899a32.214765 32.214765 0 1 0 64.42953 0v-338.040268a32.171812 32.171812 0 0 0-32.214765-32.214765z"  horiz-adv-x="1024" />

    
    <glyph glyph-name="next" unicode="&#58940;" d="M655.874836 455.493686l-503.562661 359.687615A82.683746 82.683746 0 0 1 28.419775 743.687837v-719.819289a82.683746 82.683746 0 0 1 123.8924-71.493464l503.562661 359.687615a82.905775 82.905775 0 0 1 0 143.430987zM958.722927-127.999556a36.768067 36.768067 0 0 0-36.856879 36.856879V859.143121a36.856879 36.856879 0 0 0 73.713758 0v-950.729857a36.679256 36.679256 0 0 0-36.856879-36.41282z"  horiz-adv-x="1024" />

    
    <glyph glyph-name="nav_search" unicode="&#58941;" d="M996.073977-40.145174a53.719965 53.719965 0 0 0 13.682029-35.285232 49.759378 49.759378 0 0 0-15.482296-37.085498 51.127581 51.127581 0 0 0-37.085498-15.482296 58.400659 58.400659 0 0 0-17.642616 2.880427 43.890508 43.890508 0 0 0-15.482296 8.641282l-5.760854 4.680694-282.281854 284.442174a385.257122 385.257122 0 0 0-227.553739-72.010677c-8.281228 0-16.922509 0.360053-25.56379 1.08016a198.605447 198.605447 0 0 0-25.563791 3.600534 366.750378 366.750378 0 0 0-162.384076 59.408808 384.392994 384.392994 0 0 0-128.179005 136.10018 372.979301 372.979301 0 0 0-36.005339 83.532385 401.891588 401.891588 0 0 0-10.801601 181.826959 377.407958 377.407958 0 0 0 50.407473 137.540393 374.45552 374.45552 0 0 0 98.294574 109.096176A376.327798 376.327798 0 0 0 281.368008 874.390424a383.744898 383.744898 0 0 0 127.458898 21.603203 354.544568 354.544568 0 0 0 52.567794-3.600534 398.363065 398.363065 0 0 0 129.259166-41.046086A392.170147 392.170147 0 0 0 698.345833 769.254836 378.236081 378.236081 0 0 0 780.041946 636.75519a392.854248 392.854248 0 0 0 24.48363-155.183009q-4.320641-131.239459-90.373399-236.555074l283.362014-284.442174-1.440214-0.720107z m-251.317263 522.077408a324.912175 324.912175 0 0 1-22.683363 137.18034 327.864612 327.864612 0 0 1-39.965926 75.251157 337.982112 337.982112 0 0 1-58.688701 63.369396A347.019452 347.019452 0 0 1 550.723945 804.180014a330.348981 330.348981 0 0 1-178.226425 28.444217 51.415623 51.415623 0 0 1-10.441548-1.08016l-6.841015-1.08016A332.617317 332.617317 0 0 1 120.784198 669.159995a327.324532 327.324532 0 0 1-46.446886-155.183009 327.1085 327.1085 0 0 1 31.324644-158.783543 317.171027 317.171027 0 0 1 86.412813-114.136923 336.469888 336.469888 0 0 1 274.000625-75.251158 345.327202 345.327202 0 0 1 75.611211 22.683364 355.408696 355.408696 0 0 1 68.05009 39.245819 367.578501 367.578501 0 0 1 57.248488 53.647954 311.050119 311.050119 0 0 1 42.846353 65.529716 336.505894 336.505894 0 0 1 34.925178 135.020019z"  horiz-adv-x="1024" />

    
    <glyph glyph-name="danqu" unicode="&#58942;" d="M124.470738 98.915644C44.453835 179.319101 0 284.84864 0 396.176505c0 104.756428 43.680725 201.3952 129.495954 287.596983 80.016903 80.403458 180.90778 122.924517 291.462534 122.924517h459.227442V855.790501C880.18593 880.530027 902.21957 895.99223 922.320434 895.99223a37.031977 37.031977 0 0 0 21.26053-6.184881l184.000221-91.227c13.142873-8.117657 20.100864-19.714309 20.100864-32.470628s-7.344547-24.35297-19.714309-32.084072L939.328858 631.975107a32.122728 32.122728 0 0 0-17.008424-4.638661c-22.420195 0-42.521059 22.80675-42.521059 47.546275V733.252539H416.706382c-175.496009 0-341.714696-163.899356-341.714695-336.689479 0-83.882454 40.201729-172.017013 110.554754-241.210374l4.638661-4.638661-58.369818-59.142928zM427.14337-127.992192a37.031977 37.031977 0 0 0-21.26053 6.184882l-184.000221 91.227c-13.142873 8.117657-20.100864 19.714309-20.100864 32.470627s7.344547 24.35297 19.714309 32.084072l189.025437 102.050543a32.431972 32.431972 0 0 0 17.008424 5.025216c22.420195 0 42.521059-22.80675 42.521059-47.546276v-58.369817h463.092993c175.496009 0 341.714696 163.512801 341.714695 336.689479 0 78.857237-36.336178 162.739691-99.731212 230.000276l-5.411771 5.798326 6.957992 4.252106 65.714364 39.428619 3.478996-4.252106a413.88453 413.88453 0 0 0 103.983318-275.613776c0-104.756428-43.680725-201.781755-129.495954-287.596984-80.016903-80.403458-180.90778-122.924517-291.462534-122.924517H469.277874v-49.479051c0-23.966415-22.03364-39.428619-42.134504-39.428619zM660.236086 163.083788v291.462534a281.760002 281.760002 0 0 0-93.932886-51.798381l-8.504211-2.705886v85.815229l4.638661 1.546221c20.100864 6.571436 42.134504 19.327754 65.714364 37.495843s39.428619 39.428619 47.932831 63.395034l1.54622 4.252106h75.378242v-429.076145h-92.773221z"  horiz-adv-x="1349" />

    
    <glyph glyph-name="play" unicode="&#58943;" d="M701.697842 415.677698l-275.153957 158.756834a36.392518 36.392518 0 0 1-54.515108-31.677697v-317.882015a36.392518 36.392518 0 0 1 54.515108-31.677698l275.153957 158.756835a36.834532 36.834532 0 0 1 0 63.723741zM512-128C229.479137-128 0 101.84748200000001 0 384S229.847482 896 512 896s512-229.847482 512-512-229.479137-512-512-512z m0 997.479137a485.479137 485.479137 0 0 1 0-970.958274c267.78705 0 485.847482 217.692086 485.847482 485.479137S779.78705 869.479137 512 869.479137z"  horiz-adv-x="1024" />

    
    <glyph glyph-name="suiji" unicode="&#58944;" d="M679.479529 570.424443c-70.517582-70.092778-72.216801-127.441414-74.340825-194.135753-0.849609-35.258791-2.124024-71.367192-14.018556-108.750006-24.638673-78.164067-86.235357-148.681649-172.470713-197.958996a580.453159 580.453159 0 0 0-245.961928-73.91602c27.612306-0.849609-38.657229-8.496094-107.050788-8.496094H47.370117a48.002932 48.002932 0 0 0 1.274414 96.005865h0.424805c127.866218-1.274414 239.165053 22.51465 321.577167 69.667972 65.419926 37.382815 111.298835 88.35938 128.715828 143.583993 7.646485 24.638673 8.496094 51.40137 9.345703 82.412114 2.124024 72.216801 4.672852 162.2754 102.377936 259.555679s224.721693 141.884774 400.166039 141.884774h7.646485V866.173484c0 27.187502 19.116212 37.807619 42.055666 23.364259l205.180676-127.016609c23.364259-14.44336 23.364259-38.232424 0.424805-53.100589l-206.030286-132.963875c-22.939454-14.868165-41.630862-4.672852-41.630861 22.51465V684.696911h-7.646485c-149.531259-0.424805-251.909194-35.258791-331.77248-114.272468zM49.49414 684.272106h-0.424804a48.002932 48.002932 0 0 0-0.424805 96.005865c97.280279 0.849609 185.639659-11.044923 263.378922-35.683596 70.942387-22.939454 131.689461-55.649417 180.117198-98.129888a48.045413 48.045413 0 1 0-63.295903-72.216801c-83.686528 72.641606-218.349622 112.148444-379.350608 110.02442z m1217.490306-619.36527c23.364259-14.44336 23.364259-38.232424 0.424804-53.100589l-206.030285-132.963875c-22.939454-14.868165-41.630862-4.672852-41.630862 22.51465v85.810552h-7.646485c-159.301767 0-287.59279 50.551761-392.094749 154.628915a47.025882 47.025882 0 0 0-12.744141 32.709963 48.130374 48.130374 0 0 0 80.28809 35.683596c87.084966-86.235357 190.312511-126.591804 324.5508-126.591805h7.646485v85.385747c0 27.187502 19.116212 37.807619 42.055667 23.36426l205.180676-127.441414z"  horiz-adv-x="1284" />

    
    <glyph glyph-name="shunxu" unicode="&#58945;" d="M124.145584 98.789721A417.875658 417.875658 0 0 0 0 395.765431c0 104.671767 43.410384 201.635148 129.419743 287.644507 79.923791 80.329495 180.944217 122.92847 291.295847 122.92847h459.257519V855.83436c0 24.747976 21.908044 40.164748 42.193271 40.164747a40.083607 40.083607 0 0 0 21.502339-6.085567L1127.452868 798.630022c12.982545-8.11409 20.285226-19.879522 20.285226-32.456362s-7.302681-24.342271-19.879521-32.050657l-188.652603-102.23754a30.955255 30.955255 0 0 0-17.03959-4.868454c-22.313749 0-42.598975 22.719453-42.598975 47.467429V732.905889H416.658545c-175.670058 0-341.603208-163.904627-341.603208-336.734753 0-83.980836 40.164748-172.018718 110.757334-240.988487l4.46275-4.462749-58.421451-59.638565zM426.801158-127.999107a40.083607 40.083607 0 0 0-21.50234 6.085567l-183.784149 91.283518c-12.982545 8.11409-20.285226 19.879522-20.285226 32.456362s7.302681 24.342271 19.879522 32.050657l188.652603 102.23754a30.955255 30.955255 0 0 0 17.03959 4.868454c22.313749 0 42.598975-22.719453 42.598975-47.467429v-58.421451h463.314564c175.670058 0 341.603208 163.904627 341.603208 336.734753 0 78.706677-36.513407 162.687514-99.803312 230.034465l-5.679864 5.679863 6.896977 4.057045 65.724133 39.353339 3.651341-4.057045a413.210056 413.210056 0 0 0 104.266062-275.473371c0-104.671767-43.410384-201.635148-129.419743-287.644507-80.329495-80.329495-180.944217-122.92847-291.295847-122.92847H468.994428v-49.495952c0-23.936567-21.908044-39.353339-42.19327-39.353338z"  horiz-adv-x="1349" />

    
    <glyph glyph-name="collect_hl" unicode="&#58946;" d="M791.459807 896c-94.662379 0-182.73955-72.437299-240.771704-151.048232C492.655949 823.151125 404.578778 896 309.916399 896 139.11254 896 0 744.128617 0 557.273312c0-111.536977 49.800643-189.736334 89.723473-252.29582 116.064309-182.327974 408.694534-409.517685 421.0418-418.983923a66.387138 66.387138 0 0 1 39.92283-13.993569 63.83537 63.83537 0 0 1 39.922829 13.993569c12.347267 9.466238 304.565916 236.655949 421.041801 418.983923 39.92283 62.971061 89.723473 140.758842 89.723473 252.29582 0 186.855305-139.11254 338.726688-309.916399 338.726688z"  horiz-adv-x="1101" />

    
    <glyph glyph-name="collect" unicode="&#58947;" d="M547.474227-127.99989a83.565705 83.565705 0 0 0-52.297137 18.285712c-29.988568 23.405712-295.862825 232.228547-405.942814 405.577099C49.371423 358.400058 0 435.931478 0 549.302894 0 740.571445 142.99427 896 318.537109 896c103.497132 0 185.782837-77.53142 229.302832-129.097129C590.994222 818.46858 673.645642 896 777.142774 896c175.542838 0 318.537109-155.428555 318.537109-346.697106 0-113.371416-49.371423-190.902837-89.234277-253.439973-113.371416-178.102838-394.239958-396.434243-405.942813-405.577099a87.149705 87.149705 0 0 0-53.028566-18.285712zM318.171394 848.091434c-149.211413 0-270.994257-134.217128-270.994256-299.154254 0-99.474275 45.348567-170.422839 81.554277-227.839976 107.885703-169.325696 383.26853-384.365673 394.971386-393.508529a37.887996 37.887996 0 0 1 46.445709 0c11.702856 9.142856 286.354255 222.354262 394.971387 393.508529 36.571425 57.051422 81.554277 128.365701 81.554277 227.839976 0 164.937125-121.41713 299.154254-270.994257 299.154254-69.485707 0-147.748556-50.102852-209.919978-134.217129a23.222855 23.222855 0 0 0-19.01714-9.50857 23.734855 23.734855 0 0 0-19.017141 9.50857C466.285664 797.988582 387.657101 848.091434 318.171394 848.091434z"  horiz-adv-x="1095" />

    
    <glyph glyph-name="delete" unicode="&#58948;" d="M61.55662-127.99613a59.531731 59.531731 0 0 0-43.197628 17.999012 61.646615 61.646615 0 0 0 0 86.845231L918.759553 877.113682a61.421628 61.421628 0 1 0 86.845232-86.845232L104.709251-109.997118a59.531731 59.531731 0 0 0-43.152631-17.999012zM961.912184-127.99613a59.531731 59.531731 0 0 0-43.197628 17.999012L17.999012 790.358445A61.421628 61.421628 0 0 0 104.709251 877.113682l900.400561-900.400562a61.646615 61.646615 0 0 0 0-86.845231 59.531731 59.531731 0 0 0-43.197628-17.864019z"  horiz-adv-x="1025" />

    
    <glyph glyph-name="delete_all" unicode="&#58949;" d="M842.878343 569.097498a37.726316 37.726316 0 0 1-37.991371-36.666092v-547.782571a36.577739 36.577739 0 0 0-37.107852-36.224331H255.77912a36.577739 36.577739 0 0 0-37.107852 36.224331V534.198447c0 20.320966-14.578085 36.666091-34.899051 36.666091s-34.899051-16.345125-34.89905-36.666091v-549.107852c0-60.521139 46.826575-113.090595 106.905953-113.090595h512c60.521139 0 113.090595 52.569456 113.090595 113.090595v547.782572c0 19.879206-18.112166 36.224331-37.991372 36.224331z m-407.302847-437.784297V533.756687c0 20.320966-14.578085 36.666091-34.899051 36.666091s-34.899051-16.345125-34.899051-36.666091v-402.443486c0-20.320966 14.578085-36.666091 34.899051-36.666091s34.899051 16.345125 34.899051 36.666091z m222.20535 0V533.756687a38.035548 38.035548 0 0 1-75.982744 0v-402.443486a38.035548 38.035548 0 0 1 75.982744 0zM987.333909 714.878343h-182.446937V789.535807C804.886972 850.056946 755.409836 896 695.772217 896h-366.660914C268.590164 896 219.113028 850.056946 219.113028 789.535807V714.878343H36.666091a34.943227 34.943227 0 1 1 0-69.798101h951.109578c20.320966 0 36.666091 14.578085 36.666091 34.89905a36.047627 36.047627 0 0 1-37.107851 34.899051zM728.904228 714.878343H289.794651V789.535807c0 20.320966 18.995686 36.224331 39.316652 36.224331h366.660914c19.879206 0 33.13201-15.903365 33.132011-36.224331V714.878343z"  horiz-adv-x="1024" />

    
    <glyph glyph-name="home_collect" unicode="&#58950;" d="M550.602446-127.998646A102.873938 102.873938 0 0 0 487.618403-106.326716c-11.513212 8.804221-285.121316 221.460025-395.512705 394.496832-8.126973 12.529084-17.947066 28.105783-27.428535 44.698354a43.106821 43.106821 0 0 0 74.497256 43.343858c8.804221-14.899451 17.608442-29.121655 25.735416-41.650739 102.264415-160.507724 364.359306-364.020683 375.533895-372.48628a15.813736 15.813736 0 0 1 19.978809 0c2.708991 2.031743 272.592232 210.962684 375.533895 372.48628 35.555509 55.534318 75.513128 118.518362 75.513128 207.915069 0 147.301392-107.682397 266.835626-240.422963 266.835626-72.126889 0-139.851667-35.555509-185.904516-97.862304a42.835922 42.835922 0 0 0-34.878261-17.608443 43.309996 43.309996 0 0 0-34.87826 17.608443 253.256808 253.256808 0 0 1-75.513128 68.063402 43.140684 43.140684 0 0 0 43.005234 74.835879 328.465174 328.465174 0 0 0 67.047531-51.132207C609.861627 862.476235 687.745122 895.661376 770.369351 895.661376 950.517261 895.661376 1097.141406 737.185395 1097.141406 542.476658c0-114.793499-51.470831-195.385985-89.058083-254.306542-111.068636-174.05268-383.999492-385.692612-395.512705-394.496832a97.963892 97.963892 0 0 0-61.968172-21.67193zM57.227438 584.466021a38.061325 38.061325 0 0 0-10.835965 1.354495A43.309996 43.309996 0 0 0 15.576699 638.645843C55.195694 790.010722 184.55002 896 330.158293 896a43.343858 43.343858 0 1 0 0-86.687716c-106.327902 0-201.142591-79.23799-230.941493-192.676994A43.682482 43.682482 0 0 0 57.227438 584.466021zM50.45496 436.826004a50.45496 50.45496 0 1 0 50.454959 50.45496 50.590409 50.590409 0 0 0-50.454959-50.45496z"  horiz-adv-x="1097" />

    
    <glyph glyph-name="home_paihang" unicode="&#58951;" d="M956.732884-127.991361H812.643403a93.863029 93.863029 0 0 0-94.921507 94.921506v241.742542a93.863029 93.863029 0 0 0 94.921507 94.921507h144.089481a93.863029 93.863029 0 0 0 94.921507-94.921507v-241.742542a93.658163 93.658163 0 0 0-94.921507-94.921506zM812.643403 228.817899a19.018446 19.018446 0 0 1-19.803768-19.803767V-32.728411a19.018446 19.018446 0 0 1 19.803768-19.803767h144.089481a19.018446 19.018446 0 0 1 19.803768 19.803767v241.742543a19.018446 19.018446 0 0 1-19.803768 19.803767zM397.105728 43.755106a37.55887 37.55887 0 0 0-37.55887 37.558869V798.005495A93.863029 93.863029 0 0 0 454.468365 892.927002H536.073545a37.55887 37.55887 0 1 0 0-75.11774h-81.60518a19.018446 19.018446 0 0 1-19.803767-19.803767v-716.69152a37.55887 37.55887 0 0 0-37.55887-37.558869zM598.557846-127.991361h-144.089481a93.863029 93.863029 0 0 0-94.921507 94.921506 37.55887 37.55887 0 0 0 75.11774 0 19.018446 19.018446 0 0 1 19.803767-19.803767h144.089481a19.018446 19.018446 0 0 1 19.803768 19.803767V735.521194a37.55887 37.55887 0 0 0 75.117739 0v-768.591049a93.658163 93.658163 0 0 0-94.921507-94.921506zM239.017032-127.991361H94.92755A93.863029 93.863029 0 0 0 0.006044-33.069855V404.320253a93.863029 93.863029 0 0 0 94.921506 94.921507H239.017032A95.160518 95.160518 0 0 0 333.938538 404.320253v-437.390108A93.863029 93.863029 0 0 0 239.017032-127.991361zM94.92755 424.124021A19.018446 19.018446 0 0 1 75.123783 404.320253v-437.390108a19.018446 19.018446 0 0 1 19.803767-19.803767H239.017032a19.018446 19.018446 0 0 1 19.803767 19.803767V404.320253a19.803768 19.803768 0 0 1-19.803767 19.803768H94.92755zM653.188929 808.590267a43.704866 43.704866 0 1 0 43.704867 43.704867 43.773155 43.773155 0 0 0-43.704867-43.704867z"  horiz-adv-x="1051" />

    


  </font>
</defs>
</svg>
